<svg id="instagram" xmlns="http://www.w3.org/2000/svg" width="39" height="39" viewBox="0 0 39 39">
  <path id="Caminho_17410" data-name="Caminho 17410" d="M213.468,210.234A3.234,3.234,0,1,1,210.234,207,3.234,3.234,0,0,1,213.468,210.234Zm0,0" transform="translate(-190.734 -190.734)" fill="#fff"/>
  <path id="Caminho_17411" data-name="Caminho 17411" d="M151,137.72a3.213,3.213,0,0,0-1.841-1.841,5.369,5.369,0,0,0-1.8-.334c-1.023-.047-1.33-.057-3.921-.057s-2.9.01-3.921.056a5.372,5.372,0,0,0-1.8.334,3.214,3.214,0,0,0-1.842,1.841,5.369,5.369,0,0,0-.334,1.8c-.047,1.023-.057,1.33-.057,3.921s.01,2.9.057,3.921a5.367,5.367,0,0,0,.334,1.8,3.213,3.213,0,0,0,1.841,1.841,5.36,5.36,0,0,0,1.8.334c1.023.047,1.33.056,3.92.056s2.9-.01,3.921-.056a5.36,5.36,0,0,0,1.8-.334A3.213,3.213,0,0,0,151,149.165a5.373,5.373,0,0,0,.334-1.8c.047-1.023.056-1.33.056-3.921s-.01-2.9-.056-3.921A5.362,5.362,0,0,0,151,137.72Zm-7.564,10.7a4.982,4.982,0,1,1,4.982-4.982A4.982,4.982,0,0,1,143.439,148.425Zm5.179-9a1.164,1.164,0,1,1,1.164-1.164A1.164,1.164,0,0,1,148.618,139.428Zm0,0" transform="translate(-123.939 -123.942)" fill="#fff"/>
  <path id="Caminho_17412" data-name="Caminho 17412" d="M19.5,0A19.5,19.5,0,1,0,39,19.5,19.5,19.5,0,0,0,19.5,0ZM30.63,24.116a8.215,8.215,0,0,1-.52,2.718,5.725,5.725,0,0,1-3.275,3.275,8.221,8.221,0,0,1-2.718.52c-1.194.054-1.576.068-4.616.068s-3.422-.013-4.617-.068a8.221,8.221,0,0,1-2.718-.52,5.725,5.725,0,0,1-3.275-3.275,8.213,8.213,0,0,1-.52-2.718C8.316,22.922,8.3,22.541,8.3,19.5s.013-3.422.068-4.616a8.216,8.216,0,0,1,.52-2.718,5.729,5.729,0,0,1,3.275-3.275,8.223,8.223,0,0,1,2.718-.52C16.078,8.316,16.459,8.3,19.5,8.3s3.422.013,4.616.068a8.224,8.224,0,0,1,2.718.52,5.727,5.727,0,0,1,3.275,3.275,8.214,8.214,0,0,1,.521,2.718c.054,1.194.067,1.576.067,4.616S30.684,22.922,30.63,24.116Zm0,0" fill="#fff"/>
</svg>
