<svg xmlns="http://www.w3.org/2000/svg" width="219.229" height="37.83" viewBox="0 0 219.229 37.83">
  <g id="Cuponeria_Logo_P_Negativo" transform="translate(109.615 18.915)">
    <g id="Grupo_7078" data-name="Grupo 7078" transform="translate(-109.615 -18.915)">
      <g id="Grupo_7073" data-name="Grupo 7073" transform="translate(48.284 0.323)">
        <g id="Grupo_7072" data-name="Grupo 7072" transform="translate(0 8.312)">
          <path id="Caminho_8803" data-name="Caminho 8803" d="M142.648,24.05a3.143,3.143,0,0,1,1.666,2.689,2.535,2.535,0,0,1-2.348,2.651c-.53,0-.682-.038-2.121-.606a5.794,5.794,0,0,0-2.121-.454c-2.537,0-4.355,2.121-4.355,5.112s1.818,5.075,4.507,5.075a5.794,5.794,0,0,0,2.348-.568,3.128,3.128,0,0,1,1.7-.53,2.562,2.562,0,0,1,2.462,2.689,2.84,2.84,0,0,1-1.136,2.159,10.383,10.383,0,0,1-5.908,1.742,9.354,9.354,0,0,1-7.157-3.067,10.256,10.256,0,0,1-2.689-7.612,10.226,10.226,0,0,1,3.067-7.8,10.717,10.717,0,0,1,7.044-2.727,11.02,11.02,0,0,1,5.037,1.25Z" transform="translate(-127.5 -22.8)" fill="#fff"/>
          <path id="Caminho_8804" data-name="Caminho 8804" d="M195.829,35.865a7.329,7.329,0,0,1-1.439,4.847,10.307,10.307,0,0,1-15.451,0,7.192,7.192,0,0,1-1.439-4.847V27.079a4.151,4.151,0,0,1,.417-2.462,2.916,2.916,0,0,1,5.112,0,4.084,4.084,0,0,1,.417,2.462v8.066a3.043,3.043,0,0,0,.909,2.537,3.408,3.408,0,0,0,4.658,0,3.043,3.043,0,0,0,.909-2.537V27.079a4.151,4.151,0,0,1,.417-2.462,2.916,2.916,0,0,1,5.112,0,4.084,4.084,0,0,1,.417,2.462Z" transform="translate(-158.565 -22.99)" fill="#fff"/>
          <path id="Caminho_8805" data-name="Caminho 8805" d="M234.976,26.535c0-2.159,1.1-3.484,2.84-3.484s2.083.568,2.84,2.234A6.309,6.309,0,0,1,245.92,22.9c4.885,0,8.71,4.544,8.71,10.414s-3.9,10.793-9.089,10.793a6.684,6.684,0,0,1-4.7-1.742v5.718a4.017,4.017,0,0,1-.417,2.462,2.916,2.916,0,0,1-5.112,0,4.084,4.084,0,0,1-.417-2.462Zm5.756,6.93c0,3.067,1.591,5.15,3.976,5.15s4.052-2.2,4.052-5.112-1.78-5.075-4.052-5.075-3.976,2.083-3.976,5Z" transform="translate(-194.228 -22.862)" fill="#fff"/>
          <path id="Caminho_8806" data-name="Caminho 8806" d="M307.879,26.119A10.764,10.764,0,0,1,310.53,33.5c0,6.021-4.2,10.566-9.846,10.566a9.846,9.846,0,0,1-7.233-3.219,10.681,10.681,0,0,1-2.651-7.5c0-5.87,4.317-10.452,9.884-10.452A9.846,9.846,0,0,1,307.879,26.119Zm-11.285,7.309c0,2.992,1.7,5.15,3.938,5.15s4.128-2.234,4.128-5.112-1.818-5.075-4.128-5.075S296.594,30.625,296.594,33.428Z" transform="translate(-228.959 -22.862)" fill="#fff"/>
          <path id="Caminho_8807" data-name="Caminho 8807" d="M349.276,26.554c0-2.083,1.212-3.446,3.03-3.446s2.159.606,2.727,2.045a7.081,7.081,0,0,1,5.415-2.159,7.688,7.688,0,0,1,5.15,1.78c1.553,1.4,2.121,2.84,2.121,5.68v9.619a4.151,4.151,0,0,1-.417,2.462,2.954,2.954,0,0,1-5.112,0,4.083,4.083,0,0,1-.417-2.462V31.818c0-2.272-1.288-3.749-3.295-3.749a3.37,3.37,0,0,0-3.333,3.484v8.521a4.151,4.151,0,0,1-.417,2.462,2.916,2.916,0,0,1-5.112,0,4.083,4.083,0,0,1-.417-2.462Z" transform="translate(-265.243 -22.919)" fill="#fff"/>
          <path id="Caminho_8808" data-name="Caminho 8808" d="M410.924,35.373c.871,2.386,2.386,3.484,4.7,3.484,1.4,0,1.78-.114,4.847-1.666a3.37,3.37,0,0,1,1.288-.265,2.537,2.537,0,0,1,2.386,2.424c0,2.424-4.317,4.658-8.824,4.658-6.324,0-10.717-4.279-10.717-10.3S408.917,22.8,414.711,22.8s9.808,4.469,9.808,10.225c0,1.666-.757,2.348-2.575,2.348Zm7.763-4.014a6.363,6.363,0,0,0-.833-2.159,3.673,3.673,0,0,0-3.03-1.515c-1.969,0-3.257,1.136-4.09,3.711Z" transform="translate(-299.663 -22.8)" fill="#fff"/>
          <path id="Caminho_8809" data-name="Caminho 8809" d="M463.338,26.484c0-2.045,1.174-3.37,2.992-3.37s2.272.682,2.916,2.083c1.666-1.628,2.689-2.2,4.052-2.2a3.03,3.03,0,0,1,3.03,3.067c0,1.4-.606,1.969-3.03,2.689-3.219,1.1-4.128,1.969-4.052,3.938v7.385a4.151,4.151,0,0,1-.417,2.462,2.916,2.916,0,0,1-5.112,0,4.084,4.084,0,0,1-.417-2.462Z" transform="translate(-336.133 -22.924)" fill="#fff"/>
          <path id="Caminho_8810" data-name="Caminho 8810" d="M502.4,27.079a4.151,4.151,0,0,1,.417-2.462,2.916,2.916,0,0,1,5.112,0,4.084,4.084,0,0,1,.417,2.462V40.145a4.151,4.151,0,0,1-.417,2.462,2.916,2.916,0,0,1-5.112,0,4.084,4.084,0,0,1-.417-2.462Z" transform="translate(-360.426 -22.99)" fill="#fff"/>
          <path id="Caminho_8811" data-name="Caminho 8811" d="M545.909,40.472c0,2.083-1.212,3.484-2.992,3.484s-2.386-.757-2.992-2.348a5.382,5.382,0,0,1-4.847,2.462,8.633,8.633,0,0,1-5.793-2.233A10.669,10.669,0,0,1,525.8,33.39a10.084,10.084,0,0,1,3.105-7.8A7.976,7.976,0,0,1,535.04,22.9c2.272,0,3.333.606,5.037,2.348.644-1.553,1.515-2.2,2.916-2.2a2.954,2.954,0,0,1,2.916,3.03Zm-14.2-7.044c0,3.105,1.591,5.15,4.09,5.15s4.052-2.083,4.052-5.112-1.666-5.075-4.09-5.075S531.708,30.474,531.708,33.428Z" transform="translate(-374.965 -22.862)" fill="#fff"/>
        </g>
        <path id="Caminho_8812" data-name="Caminho 8812" d="M508.123,3.938A3.446,3.446,0,1,1,504.7.852,3.446,3.446,0,0,1,508.123,3.938Z" transform="translate(-359.712 -0.852)" fill="#fff"/>
      </g>
      <g id="Grupo_7077" data-name="Grupo 7077">
        <ellipse id="Elipse_117" data-name="Elipse 117" cx="18.897" cy="18.897" rx="18.897" ry="18.897" fill="red"/>
        <g id="Grupo_7076" data-name="Grupo 7076" transform="translate(0.003 0.016)">
          <g id="Grupo_7074" data-name="Grupo 7074" transform="translate(2.685 2.673)">
            <path id="Caminho_8813" data-name="Caminho 8813" d="M7.1,72.866,9.864,71.2a16.4,16.4,0,0,0,2.348,2.992A16.208,16.208,0,0,0,15.2,76.54L13.538,79.3A19.011,19.011,0,0,1,7.1,72.866Z" transform="translate(-7.1 -46.925)" fill="#fad424"/>
            <path id="Caminho_8814" data-name="Caminho 8814" d="M13.538,7.1,15.2,9.864a15.943,15.943,0,0,0-5.3,5.378L7.1,13.576A19.011,19.011,0,0,1,13.538,7.1Z" transform="translate(-7.1 -7.1)" fill="#fad424"/>
            <path id="Caminho_8815" data-name="Caminho 8815" d="M71.2,9.964,72.866,7.2A18.973,18.973,0,0,1,79.3,13.638L76.54,15.3a15.943,15.943,0,0,0-5.34-5.34Z" transform="translate(-46.925 -7.162)" fill="#fad424"/>
            <path id="Caminho_8816" data-name="Caminho 8816" d="M71.2,76.54a17.11,17.11,0,0,0,5.34-5.34l2.727,1.666c-.606,1.7-4.241,5.34-6.4,6.438Z" transform="translate(-46.925 -46.925)" fill="#fad424"/>
          </g>
          <g id="Grupo_7075" data-name="Grupo 7075">
            <path id="Caminho_8817" data-name="Caminho 8817" d="M37.8,93.143,38.6,90a16.322,16.322,0,0,0,3.787.454A15.792,15.792,0,0,0,46.169,90l.8,3.143A19.2,19.2,0,0,1,37.8,93.143Z" transform="translate(-23.489 -55.933)" fill="#fad424"/>
            <path id="Caminho_8818" data-name="Caminho 8818" d="M93.143,46.927,90,46.169a16.511,16.511,0,0,0,.454-3.787A16.245,16.245,0,0,0,90,38.6l3.143-.8a19.049,19.049,0,0,1,0,9.127Z" transform="translate(-55.921 -23.501)" fill="#fad424"/>
            <path id="Caminho_8819" data-name="Caminho 8819" d="M38.6,3.737,37.8.594a19.124,19.124,0,0,1,9.127,0l-.8,3.143a15.261,15.261,0,0,0-3.787-.454,15.034,15.034,0,0,0-3.749.454Z" transform="translate(-23.489 -0.041)" fill="#fad424"/>
            <path id="Caminho_8820" data-name="Caminho 8820" d="M.536,37.9l3.143.8a15.943,15.943,0,0,0,0,7.536l-3.105.757A19.2,19.2,0,0,1,.536,37.9Z" transform="translate(-0.009 -23.563)" fill="#fad424"/>
          </g>
        </g>
        <path id="Caminho_8821" data-name="Caminho 8821" d="M27.6,29.6a3.863,3.863,0,0,1,1.1-2.8,3.711,3.711,0,0,1,5.378,0,4.125,4.125,0,0,1,0,5.6,3.749,3.749,0,0,1-5.378,0,3.9,3.9,0,0,1-1.1-2.8Zm2.537,0a1.439,1.439,0,0,0,.379.985,1.136,1.136,0,0,0,.871.417,1.174,1.174,0,0,0,.909-.417,1.469,1.469,0,0,0,0-1.969,1.174,1.174,0,0,0-.909-.417,1.136,1.136,0,0,0-.909.417,1.439,1.439,0,0,0-.341.985Zm3.143,12.989a3.673,3.673,0,0,1-.833,1.022,1.4,1.4,0,0,1-.909.341,1.363,1.363,0,0,1-1.4-1.4,2.083,2.083,0,0,1,.114-.644,2.878,2.878,0,0,1,.265-.606l8.218-14.428a3.711,3.711,0,0,1,.833-1.06,1.515,1.515,0,0,1,1.893.076,1.25,1.25,0,0,1,.417.947,1.893,1.893,0,0,1-.114.568,3.257,3.257,0,0,1-.3.682Zm3.6-2.764a3.863,3.863,0,0,1,1.1-2.8,3.711,3.711,0,0,1,5.378,0,4.09,4.09,0,0,1,0,5.6,3.749,3.749,0,0,1-5.378,0,3.863,3.863,0,0,1-1.1-2.8Zm2.537,0a1.439,1.439,0,0,0,.379.985,1.174,1.174,0,0,0,.871.417,1.136,1.136,0,0,0,.909-.417,1.553,1.553,0,0,0,0-2.007,1.174,1.174,0,0,0-1.78,0A1.439,1.439,0,0,0,39.413,39.826Z" transform="translate(-17.146 -15.855)" fill="#fff"/>
      </g>
    </g>
  </g>
</svg>
