<svg id="clothing-hanger" xmlns="http://www.w3.org/2000/svg" width="19.052" height="14.005" viewBox="0 0 19.052 14.005">
  <path id="Caminho_29719" data-name="Caminho 29719" d="M18.146,71.98l-7.878-5.055v-.38a.67.67,0,0,1,.354-.568c.03-.02.065-.042.1-.066A2.129,2.129,0,0,0,11.9,64.044a2.4,2.4,0,0,0-1.852-2.261,2.42,2.42,0,0,0-2.395.672A2.553,2.553,0,0,0,6.966,64.3c0,.057,0,.179-.005.3,0,.164.315.3.707.3h.142c.391,0,.709-.133.71-.3,0-.136,0-.272,0-.3.022-.54.163-.857.7-.969a1.023,1.023,0,0,1,.907.239.559.559,0,0,1,.133.434.64.64,0,0,1-.268.477l-.675.471a1.223,1.223,0,0,0-.614,1.13v.845l-7.8,5.036A2.038,2.038,0,0,0,.091,74.3a1.958,1.958,0,0,0,2.045,1.416H17.013a1.994,1.994,0,0,0,1.966-1.436A2.1,2.1,0,0,0,18.146,71.98Zm-.8,1.759a.369.369,0,0,1-.354.278H2.117a.361.361,0,0,1-.205-.667l7.623-4.888L17.2,73.37A.317.317,0,0,1,17.345,73.739Z" transform="translate(0 -61.712)" fill="#7f7f7f"/>
</svg>
