<svg xmlns="http://www.w3.org/2000/svg" width="39" height="39" viewBox="0 0 39 39">
  <path id="twitter" d="M19.5,0A19.5,19.5,0,1,0,39,19.5,19.5,19.5,0,0,0,19.5,0Zm8.9,15.2q.013.288.013.578A12.648,12.648,0,0,1,15.682,28.517h0a12.669,12.669,0,0,1-6.861-2.011,9.1,9.1,0,0,0,1.068.062,8.981,8.981,0,0,0,5.559-1.916,4.481,4.481,0,0,1-4.181-3.109,4.461,4.461,0,0,0,2.022-.077A4.477,4.477,0,0,1,9.7,17.08c0-.02,0-.038,0-.057a4.445,4.445,0,0,0,2.027.56,4.48,4.48,0,0,1-1.386-5.975,12.707,12.707,0,0,0,9.226,4.677A4.478,4.478,0,0,1,27.192,12.2a8.977,8.977,0,0,0,2.842-1.086,4.493,4.493,0,0,1-1.968,2.476,8.926,8.926,0,0,0,2.57-.7A9.1,9.1,0,0,1,28.4,15.2Zm0,0" fill="#fff"/>
</svg>
